<svg id="Camada_1" data-name="Camada 1" xmlns="http://www.w3.org/2000/svg" viewBox="0 0 1080 1080"><defs><style>.cls-1{fill:#1bbc9d;}.cls-2{fill:#329b87;}.cls-3{fill:#1de4be;}</style></defs><title>Prancheta 1</title><g id="logo"><path class="cls-1" d="M959,841.57a305.69,305.69,0,0,0-118.31-73.84,25,25,0,0,0-24.49,4.82c-2.93,2.56-110.63,105-269.31,62.68a25.06,25.06,0,0,0-13.74,0c-158.69,42.27-266.39-60.12-269.31-62.68a25,25,0,0,0-24.5-4.82A305.76,305.76,0,0,0,121,841.57a25,25,0,0,0,0,35.34,308.79,308.79,0,0,0,419,16.35,308.79,308.79,0,0,0,419-16.35,25,25,0,0,0,0-35.34Z"/><path class="cls-2" d="M958.91,841.57A305.69,305.69,0,0,0,840.6,767.73a25,25,0,0,0-24.49,4.82c-2.93,2.56-110.63,105-269.31,62.68a25.09,25.09,0,0,0-6.86-1v59a308.78,308.78,0,0,0,418.78-16.15,24.9,24.9,0,0,0,.2-35.54Z"/><path class="cls-3" d="M936.83,609.2A345.66,345.66,0,0,0,773.07,606a25,25,0,0,0-18.38,16.93A317.85,317.85,0,0,1,540,833.3,317.85,317.85,0,0,1,325.31,622.91,25,25,0,0,0,306.93,606a345.66,345.66,0,0,0-163.76,3.22A25,25,0,0,0,124.86,640,344.17,344.17,0,0,0,540,885,344.17,344.17,0,0,0,955.14,640a25,25,0,0,0-18.31-30.78Z"/><path class="cls-3" d="M936.77,609.2A345.66,345.66,0,0,0,773,606a25,25,0,0,0-18.38,16.93A317.85,317.85,0,0,1,539.94,833.3V885A344.17,344.17,0,0,0,955.08,640a25,25,0,0,0-18.32-30.78Z"/><path class="cls-1" d="M806.59,432.82A25,25,0,0,0,776,415.16a368.76,368.76,0,0,0-159.76,90.16,25,25,0,0,0-6.94,24A329.84,329.84,0,0,1,540,822.48a329.84,329.84,0,0,1-69.3-293.17,25,25,0,0,0-6.93-24A368.85,368.85,0,0,0,304,415.16a25,25,0,0,0-30.59,17.66A367.86,367.86,0,0,0,533.52,883.37a24.84,24.84,0,0,0,13,0A367.86,367.86,0,0,0,806.59,432.82Z"/><path class="cls-2" d="M806.53,432.82a25,25,0,0,0-30.59-17.66,368.79,368.79,0,0,0-159.77,90.16,25,25,0,0,0-6.93,24,329.84,329.84,0,0,1-69.3,293.17l0,61.75a25,25,0,0,0,6.5-.86A367.86,367.86,0,0,0,806.53,432.82Z"/><path class="cls-3" d="M540,884.22a25,25,0,0,1-17.68-7.31,379.73,379.73,0,0,1,0-537,25,25,0,0,1,35.34,0,379.71,379.71,0,0,1,0,537A25,25,0,0,1,540,884.22Z"/><path class="cls-1" d="M539.94,884.22l0-551.61a25,25,0,0,1,17.68,7.32,379.71,379.71,0,0,1,0,537,25,25,0,0,1-17.66,7.31Z"/><path class="cls-1" d="M450.42,267.83a21.41,21.41,0,0,0,0,28.9,18.29,18.29,0,0,0,27.07,0c34-36.23,89.29-36.22,123.28,0q13.54,12,27.07,0a21.43,21.43,0,0,0,0-28.9c-48.89-52.13-128.47-52.13-177.37,0Z"/><path class="cls-1" d="M407.75,211.42c72.43-77.21,190.28-77.21,262.71,0q13.54,12,27.08,0a21.43,21.43,0,0,0,0-28.91c-87.34-93.1-229.46-93.11-316.81,0a21.42,21.42,0,0,0,0,28.91,18.3,18.3,0,0,0,27.07,0Z"/></g></svg>