<svg xmlns="http://www.w3.org/2000/svg" viewBox="0 0 279 292.01"><defs><style>.cls-1{fill:#9bb9c1;}.cls-2{fill:#fff;}</style></defs><title>Prancheta 5 cópia 4</title><g id="assets"><circle class="cls-1" cx="139.5" cy="146" r="116.23"/><path class="cls-2" d="M201.5,183.29H185.45a3.62,3.62,0,0,1-1.93-.53,4.3,4.3,0,0,1-1.27-6.31L196.3,158a4.56,4.56,0,0,0,.54-4.65,2.67,2.67,0,0,0-1-1.15,3.73,3.73,0,0,0-5.91,3.27,3.56,3.56,0,0,1-1.77,3.27,4.32,4.32,0,0,1-6.75-3.54,12.19,12.19,0,1,1,24.38,0,13.27,13.27,0,0,1-2.69,8l-8.83,11.57h7.61a3.67,3.67,0,0,1,3.19,1.77,4.32,4.32,0,0,1-3.54,6.75Z"/><path class="cls-2" d="M98,171.34a24.75,24.75,0,1,1,17.51-42.24,4.39,4.39,0,0,1-6.21,6.2,16,16,0,1,0,0,22.6,4.39,4.39,0,1,1,6.21,6.21A24.71,24.71,0,0,1,98,171.34Z"/><path class="cls-2" d="M150.41,171.36a24.76,24.76,0,1,1,24.76-24.76A24.78,24.78,0,0,1,150.41,171.36Zm0-40.74a16,16,0,1,0,16,16A16,16,0,0,0,150.41,130.62Z"/><path class="cls-2" d="M139.14,112a2.44,2.44,0,0,0,3.44,3.45,11.09,11.09,0,0,1,15.67,0,2.44,2.44,0,0,0,3.44-3.45,16,16,0,0,0-22.55,0Z"/><path class="cls-2" d="M133.72,105.24a23.65,23.65,0,0,1,33.39,0,2.44,2.44,0,0,0,3.44-3.45,28.55,28.55,0,0,0-40.27,0,2.44,2.44,0,1,0,3.44,3.45Z"/></g></svg>