<svg xmlns="http://www.w3.org/2000/svg" viewBox="0 0 349 264.01"><defs><style>.cls-1{fill:#00ddc1;}</style></defs><title>Prancheta 5 cópia</title><g id="assets"><path class="cls-1" d="M271.7,34.82a8.05,8.05,0,0,0-11.38,11.39,121.39,121.39,0,0,1,0,171.58,8,8,0,0,0,0,11.39,7.74,7.74,0,0,0,1.26,1,8,8,0,0,0,2.14,1,6.46,6.46,0,0,0,.76.18,8,8,0,0,0,7.22-2.21,137.49,137.49,0,0,0,0-194.36Z"/><path class="cls-1" d="M277.46,132h0a102.26,102.26,0,0,0-30.14-72.79,8.05,8.05,0,0,0-11.39,11.38A86.29,86.29,0,0,1,261.35,132q0,3.24-.23,6.44v.05a86.2,86.2,0,0,1-25.19,54.92,8,8,0,0,0-2.36,5.7,7.8,7.8,0,0,0,.34,2.29,8,8,0,0,0,2,3.4,8.05,8.05,0,0,0,11.39,0A102.29,102.29,0,0,0,277.46,132Z"/><path class="cls-1" d="M243,132h0a68,68,0,0,0-20-48.39A8.05,8.05,0,0,0,211.53,95a52.35,52.35,0,0,1,0,74,8.24,8.24,0,0,0-1.81,2.77,8.06,8.06,0,0,0,13.2,8.62A68,68,0,0,0,243,132Z"/><path class="cls-1" d="M88.68,217.79a121.39,121.39,0,0,1,0-171.58A8.05,8.05,0,1,0,77.3,34.82a137.49,137.49,0,0,0,0,194.36A7.84,7.84,0,0,0,80,231a8.13,8.13,0,0,0,3,.59,6.62,6.62,0,0,0,.77,0A7.79,7.79,0,0,0,86,231a7.53,7.53,0,0,0,1.4-.74,7.19,7.19,0,0,0,1.26-1,8.05,8.05,0,0,0,0-11.39Z"/><path class="cls-1" d="M87.88,138.49q-.22-3.23-.23-6.49a86.29,86.29,0,0,1,25.42-61.41,8.05,8.05,0,0,0-11.39-11.38A102.26,102.26,0,0,0,71.54,132a103.85,103.85,0,0,0,2,20.25,102.11,102.11,0,0,0,28.16,52.55,8.05,8.05,0,0,0,10.13,1,8.61,8.61,0,0,0,1.26-1,8.06,8.06,0,0,0,0-11.39A86.2,86.2,0,0,1,87.88,138.49Z"/><path class="cls-1" d="M137.47,169a51.93,51.93,0,0,1-15.32-37h0a52,52,0,0,1,15.32-37,8.05,8.05,0,0,0-11.39-11.39,68.46,68.46,0,0,0,0,96.79h0A8.05,8.05,0,1,0,137.47,169Z"/><path class="cls-1" d="M174.5,98.07a33.93,33.93,0,0,0,0,67.86h0a33.93,33.93,0,0,0,0-67.86Z"/></g></svg>