<svg xmlns="http://www.w3.org/2000/svg" xmlns:xlink="http://www.w3.org/1999/xlink" viewBox="0 0 599.21 1125"><defs><style>.cls-1{fill:none;}.cls-2{clip-path:url(#clip-path);}.cls-3{fill:url(#Áåçûìÿííûé_ãðàäèåíò_11);}.cls-4{fill:url(#Áåçûìÿííûé_ãðàäèåíò_9);}.cls-5{fill:#fff;}.cls-6{fill:#58666b;}</style><clipPath id="clip-path"><rect id="SVGID" class="cls-1" x="-2040.12" y="1485" width="2484.44" height="1140"/></clipPath><linearGradient id="Áåçûìÿííûé_ãðàäèåíò_11" x1="377.39" y1="2275.31" x2="302.77" y2="1728.62" gradientUnits="userSpaceOnUse"><stop offset="0" stop-color="#ff9b74"/><stop offset="1" stop-color="#ffb45e"/></linearGradient><linearGradient id="Áåçûìÿííûé_ãðàäèåíò_9" x1="-116.19" y1="2144.36" x2="1587.07" y2="835.4" gradientUnits="userSpaceOnUse"><stop offset="0" stop-color="#bd4f5e"/><stop offset="1" stop-color="#fc7b50"/></linearGradient></defs><title>Prancheta 14</title><g id="assets"><g class="cls-2"><polygon class="cls-3" points="278.7 1130.33 286.98 2519.44 307.68 2527.89 347.91 2520.8 340.81 1100.78 278.7 1130.33"/><polygon class="cls-4" points="299.4 1092.33 307.68 2527.89 349.09 2519.44 344.95 1075.44 299.4 1092.33"/></g><g id="tabuleiro"><rect class="cls-5" x="51.05" y="42.4" width="497.11" height="1040.2" rx="12"/><rect class="cls-6" x="104.81" y="98.69" width="104.32" height="104.32" rx="12"/><path class="cls-5" d="M180.48,165.16a1.76,1.76,0,0,0-1.32-.51,1.89,1.89,0,0,0-.52.09c-.47.16-11.58,3.94-17.91,10.27a21.25,21.25,0,0,0-2,2.29V158.8c10.73-.32,17.35-5.94,17.35-14.83a14.25,14.25,0,0,0-7.92-12.82h0a1.73,1.73,0,0,0-2.17.51l-3.64,4.84a27.22,27.22,0,0,0-4.2-5.05A1.72,1.72,0,0,0,157,131h-.06a1.72,1.72,0,0,0-1.16.44,27.41,27.41,0,0,0-4.23,5.09l-3.66-4.88a1.74,1.74,0,0,0-2.17-.51A14.26,14.26,0,0,0,137.79,144c0,8.92,6.67,14.55,17.47,14.83v18.66a21.62,21.62,0,0,0-2.1-2.45c-6.34-6.33-17.45-10.11-17.91-10.27A1.74,1.74,0,0,0,133,167c.16.47,3.93,11.57,10.27,17.91,4.81,4.81,9.73,5.52,12.22,5.52h2.89c2.49,0,7.4-.71,12.21-5.52,6.34-6.34,10.11-17.44,10.27-17.91A1.74,1.74,0,0,0,180.48,165.16Z"/><path class="cls-5" d="M149.58,124.24a1.79,1.79,0,0,0,0,2.41,1.54,1.54,0,0,0,2.26,0,7,7,0,0,1,10.27,0,1.53,1.53,0,0,0,2.25,0,1.79,1.79,0,0,0,0-2.41,10,10,0,0,0-14.78,0Z"/><path class="cls-5" d="M146,119.54a14.82,14.82,0,0,1,21.88,0,1.52,1.52,0,0,0,2.26,0,1.79,1.79,0,0,0,0-2.41,17.89,17.89,0,0,0-26.4,0,1.79,1.79,0,0,0,0,2.41,1.53,1.53,0,0,0,2.26,0Z"/><rect class="cls-6" x="247.45" y="98.69" width="104.32" height="104.32" rx="12"/><path class="cls-5" d="M323.11,165.16a1.75,1.75,0,0,0-1.31-.51,2,2,0,0,0-.53.09c-.47.16-11.57,3.94-17.91,10.27a22.42,22.42,0,0,0-2,2.29V158.8c10.73-.32,17.36-5.94,17.36-14.83a14.26,14.26,0,0,0-7.93-12.82h0a1.73,1.73,0,0,0-2.17.51L305,136.5a27.05,27.05,0,0,0-4.21-5.05,1.7,1.7,0,0,0-1.16-.44h-.05a1.7,1.7,0,0,0-1.16.44,27,27,0,0,0-4.23,5.09l-3.67-4.88a1.74,1.74,0,0,0-2.17-.51A14.25,14.25,0,0,0,280.43,144c0,8.92,6.66,14.55,17.46,14.83v18.66a20.65,20.65,0,0,0-2.1-2.45c-6.34-6.33-17.44-10.11-17.91-10.27a1.74,1.74,0,0,0-1.79.42,1.77,1.77,0,0,0-.42,1.79c.16.47,3.94,11.57,10.27,17.91,4.82,4.81,9.73,5.52,12.22,5.52h2.89c2.49,0,7.4-.71,12.22-5.52,6.33-6.34,10.11-17.44,10.26-17.91A1.74,1.74,0,0,0,323.11,165.16Z"/><path class="cls-5" d="M292.22,124.24a1.78,1.78,0,0,0,0,2.41,1.54,1.54,0,0,0,2.26,0,7,7,0,0,1,10.27,0,1.53,1.53,0,0,0,2.25,0,1.77,1.77,0,0,0,0-2.41,10,10,0,0,0-14.77,0Z"/><path class="cls-5" d="M288.66,119.54a14.83,14.83,0,0,1,21.89,0,1.51,1.51,0,0,0,2.25,0,1.78,1.78,0,0,0,0-2.41,17.88,17.88,0,0,0-26.39,0,1.77,1.77,0,0,0,0,2.41,1.52,1.52,0,0,0,2.25,0Z"/><rect class="cls-6" x="390.08" y="98.69" width="104.32" height="104.32" rx="12"/><path class="cls-5" d="M465.75,165.16a1.76,1.76,0,0,0-1.32-.51,1.89,1.89,0,0,0-.52.09c-.47.16-11.58,3.94-17.91,10.27a20.19,20.19,0,0,0-2,2.29V158.8c10.73-.32,17.35-5.94,17.35-14.83a14.26,14.26,0,0,0-7.93-12.82h0a1.74,1.74,0,0,0-2.17.51l-3.63,4.84a27.22,27.22,0,0,0-4.2-5.05,1.72,1.72,0,0,0-1.16-.44h-.06a1.7,1.7,0,0,0-1.16.44,27.41,27.41,0,0,0-4.23,5.09l-3.66-4.88a1.74,1.74,0,0,0-2.17-.51A14.26,14.26,0,0,0,423.06,144c0,8.92,6.67,14.55,17.46,14.83v18.66a20.65,20.65,0,0,0-2.1-2.45c-6.33-6.33-17.44-10.11-17.91-10.27a1.72,1.72,0,0,0-1.78.42,1.74,1.74,0,0,0-.42,1.79c.16.47,3.93,11.57,10.27,17.91,4.81,4.81,9.72,5.52,12.21,5.52h2.89c2.49,0,7.41-.71,12.22-5.52,6.33-6.34,10.11-17.44,10.27-17.91A1.74,1.74,0,0,0,465.75,165.16Z"/><path class="cls-5" d="M434.85,124.24a1.78,1.78,0,0,0,0,2.41,1.53,1.53,0,0,0,2.25,0,7,7,0,0,1,10.27,0,1.54,1.54,0,0,0,2.26,0,1.79,1.79,0,0,0,0-2.41,10,10,0,0,0-14.78,0Z"/><path class="cls-5" d="M431.29,119.54a14.83,14.83,0,0,1,21.89,0,1.52,1.52,0,0,0,2.26,0,1.78,1.78,0,0,0,0-2.41,17.88,17.88,0,0,0-26.39,0,1.79,1.79,0,0,0,0,2.41,1.52,1.52,0,0,0,2.25,0Z"/><rect class="cls-6" x="104.81" y="235.91" width="104.32" height="104.32" rx="12"/><path class="cls-5" d="M180.48,302.38a1.76,1.76,0,0,0-1.32-.51,1.58,1.58,0,0,0-.52.09c-.47.16-11.58,3.93-17.91,10.27a20.33,20.33,0,0,0-2,2.29V296c10.73-.32,17.35-5.94,17.35-14.83a14.26,14.26,0,0,0-7.92-12.83h0a1.74,1.74,0,0,0-2.17.52l-3.64,4.84a26.82,26.82,0,0,0-4.2-5.05,1.73,1.73,0,0,0-1.16-.45h-.06a1.73,1.73,0,0,0-1.16.45,27,27,0,0,0-4.23,5.09l-3.66-4.88a1.74,1.74,0,0,0-2.17-.52,14.27,14.27,0,0,0-7.93,12.83c0,8.92,6.67,14.55,17.47,14.83v18.65a20.73,20.73,0,0,0-2.1-2.44c-6.34-6.34-17.45-10.11-17.91-10.27a1.74,1.74,0,0,0-2.21,2.2c.16.47,3.93,11.58,10.27,17.91,4.81,4.82,9.73,5.53,12.22,5.53h2.89c2.49,0,7.4-.71,12.21-5.53,6.34-6.33,10.11-17.44,10.27-17.91A1.73,1.73,0,0,0,180.48,302.38Z"/><path class="cls-5" d="M149.58,261.46a1.79,1.79,0,0,0,0,2.41,1.54,1.54,0,0,0,2.26,0,7,7,0,0,1,10.27,0,1.53,1.53,0,0,0,2.25,0,1.79,1.79,0,0,0,0-2.41,10,10,0,0,0-14.78,0Z"/><path class="cls-5" d="M146,256.76a14.82,14.82,0,0,1,21.88,0,1.54,1.54,0,0,0,2.26,0,1.79,1.79,0,0,0,0-2.41,17.88,17.88,0,0,0-26.4,0,1.79,1.79,0,0,0,0,2.41,1.54,1.54,0,0,0,2.26,0Z"/><rect class="cls-6" x="247.45" y="235.91" width="104.32" height="104.32" rx="12"/><path class="cls-5" d="M323.11,302.38a1.75,1.75,0,0,0-1.31-.51,1.64,1.64,0,0,0-.53.09c-.47.16-11.57,3.93-17.91,10.27a21.4,21.4,0,0,0-2,2.29V296c10.73-.32,17.36-5.94,17.36-14.83a14.27,14.27,0,0,0-7.93-12.83h0a1.74,1.74,0,0,0-2.17.52L305,273.72a26.66,26.66,0,0,0-4.21-5.05,1.71,1.71,0,0,0-1.16-.45h-.05a1.71,1.71,0,0,0-1.16.45,26.6,26.6,0,0,0-4.23,5.09l-3.67-4.88a1.74,1.74,0,0,0-2.17-.52,14.26,14.26,0,0,0-7.92,12.83c0,8.92,6.66,14.55,17.46,14.83v18.65a19.83,19.83,0,0,0-2.1-2.44c-6.34-6.34-17.44-10.11-17.91-10.27a1.74,1.74,0,0,0-2.21,2.2c.16.47,3.94,11.58,10.27,17.91,4.82,4.82,9.73,5.53,12.22,5.53h2.89c2.49,0,7.4-.71,12.22-5.53,6.33-6.33,10.11-17.44,10.26-17.91A1.73,1.73,0,0,0,323.11,302.38Z"/><path class="cls-5" d="M292.22,261.46a1.78,1.78,0,0,0,0,2.41,1.54,1.54,0,0,0,2.26,0,7,7,0,0,1,10.27,0,1.53,1.53,0,0,0,2.25,0,1.77,1.77,0,0,0,0-2.41,10,10,0,0,0-14.77,0Z"/><path class="cls-5" d="M288.66,256.76a14.83,14.83,0,0,1,21.89,0,1.53,1.53,0,0,0,2.25,0,1.78,1.78,0,0,0,0-2.41,17.87,17.87,0,0,0-26.39,0,1.77,1.77,0,0,0,0,2.41,1.53,1.53,0,0,0,2.25,0Z"/><rect class="cls-6" x="390.08" y="235.91" width="104.32" height="104.32" rx="12"/><path class="cls-5" d="M465.75,302.38a1.76,1.76,0,0,0-1.32-.51,1.58,1.58,0,0,0-.52.09c-.47.16-11.58,3.93-17.91,10.27a19.36,19.36,0,0,0-2,2.29V296c10.73-.32,17.35-5.94,17.35-14.83a14.27,14.27,0,0,0-7.93-12.83h0a1.74,1.74,0,0,0-2.17.52l-3.63,4.84a26.82,26.82,0,0,0-4.2-5.05,1.73,1.73,0,0,0-1.16-.45h-.06a1.71,1.71,0,0,0-1.16.45,27,27,0,0,0-4.23,5.09l-3.66-4.88a1.74,1.74,0,0,0-2.17-.52,14.27,14.27,0,0,0-7.93,12.83c0,8.92,6.67,14.55,17.46,14.83v18.65a19.83,19.83,0,0,0-2.1-2.44c-6.33-6.34-17.44-10.11-17.91-10.27a1.74,1.74,0,0,0-2.2,2.2c.16.47,3.93,11.58,10.27,17.91,4.81,4.82,9.72,5.53,12.21,5.53h2.89c2.49,0,7.41-.71,12.22-5.53,6.33-6.33,10.11-17.44,10.27-17.91A1.73,1.73,0,0,0,465.75,302.38Z"/><path class="cls-5" d="M434.85,261.46a1.78,1.78,0,0,0,0,2.41,1.53,1.53,0,0,0,2.25,0,7,7,0,0,1,10.27,0,1.54,1.54,0,0,0,2.26,0,1.79,1.79,0,0,0,0-2.41,10,10,0,0,0-14.78,0Z"/><path class="cls-5" d="M431.29,256.76a14.83,14.83,0,0,1,21.89,0,1.54,1.54,0,0,0,2.26,0,1.78,1.78,0,0,0,0-2.41,17.87,17.87,0,0,0-26.39,0,1.79,1.79,0,0,0,0,2.41,1.53,1.53,0,0,0,2.25,0Z"/><rect class="cls-6" x="104.81" y="373.12" width="104.32" height="104.32" rx="12"/><path class="cls-5" d="M180.48,439.59a1.72,1.72,0,0,0-1.32-.5,1.58,1.58,0,0,0-.52.09c-.47.15-11.58,3.93-17.91,10.26a21.31,21.31,0,0,0-2,2.3v-18.5c10.73-.32,17.35-5.94,17.35-14.84a14.26,14.26,0,0,0-7.92-12.82h0a1.73,1.73,0,0,0-2.17.51l-3.64,4.85a27.49,27.49,0,0,0-4.2-5.06,1.77,1.77,0,0,0-1.16-.44h-.06a1.77,1.77,0,0,0-1.16.44,27.28,27.28,0,0,0-4.23,5.1l-3.66-4.89a1.74,1.74,0,0,0-2.17-.51,14.27,14.27,0,0,0-7.93,12.82c0,8.93,6.67,14.55,17.47,14.84v18.65a21.62,21.62,0,0,0-2.1-2.45c-6.34-6.33-17.45-10.11-17.91-10.26a1.74,1.74,0,0,0-2.21,2.2c.16.47,3.93,11.58,10.27,17.91,4.81,4.81,9.73,5.53,12.22,5.53h2.89c2.49,0,7.4-.72,12.21-5.53,6.34-6.33,10.11-17.44,10.27-17.91A1.74,1.74,0,0,0,180.48,439.59Z"/><path class="cls-5" d="M149.58,398.67a1.79,1.79,0,0,0,0,2.41,1.52,1.52,0,0,0,2.26,0,7,7,0,0,1,10.27,0,1.51,1.51,0,0,0,2.25,0,1.79,1.79,0,0,0,0-2.41,10,10,0,0,0-14.78,0Z"/><path class="cls-5" d="M146,394a14.8,14.8,0,0,1,21.88,0,1.53,1.53,0,0,0,2.26,0,1.78,1.78,0,0,0,0-2.4,17.88,17.88,0,0,0-26.4,0,1.78,1.78,0,0,0,0,2.4,1.53,1.53,0,0,0,2.26,0Z"/><rect class="cls-6" x="247.45" y="373.12" width="104.32" height="104.32" rx="12"/><path class="cls-5" d="M323.11,439.59a1.71,1.71,0,0,0-1.31-.5,1.64,1.64,0,0,0-.53.09c-.47.15-11.57,3.93-17.91,10.26a22.49,22.49,0,0,0-2,2.3v-18.5c10.73-.32,17.36-5.94,17.36-14.84a14.27,14.27,0,0,0-7.93-12.82h0a1.73,1.73,0,0,0-2.17.51L305,410.94a27.32,27.32,0,0,0-4.21-5.06,1.75,1.75,0,0,0-1.16-.44h-.05a1.75,1.75,0,0,0-1.16.44,26.85,26.85,0,0,0-4.23,5.1l-3.67-4.89a1.74,1.74,0,0,0-2.17-.51,14.26,14.26,0,0,0-7.92,12.82c0,8.93,6.66,14.55,17.46,14.84v18.65a20.65,20.65,0,0,0-2.1-2.45c-6.34-6.33-17.44-10.11-17.91-10.26a1.74,1.74,0,0,0-1.79.41,1.77,1.77,0,0,0-.42,1.79c.16.47,3.94,11.58,10.27,17.91,4.82,4.81,9.73,5.53,12.22,5.53h2.89c2.49,0,7.4-.72,12.22-5.53,6.33-6.33,10.11-17.44,10.26-17.91A1.74,1.74,0,0,0,323.11,439.59Z"/><path class="cls-5" d="M292.22,398.67a1.78,1.78,0,0,0,0,2.41,1.52,1.52,0,0,0,2.26,0,7,7,0,0,1,10.27,0,1.51,1.51,0,0,0,2.25,0,1.77,1.77,0,0,0,0-2.41,10,10,0,0,0-14.77,0Z"/><path class="cls-5" d="M288.66,394a14.82,14.82,0,0,1,21.89,0,1.52,1.52,0,0,0,2.25,0,1.77,1.77,0,0,0,0-2.4,17.87,17.87,0,0,0-26.39,0,1.76,1.76,0,0,0,0,2.4,1.52,1.52,0,0,0,2.25,0Z"/><rect class="cls-6" x="390.08" y="373.12" width="104.32" height="104.32" rx="12"/><path class="cls-5" d="M465.75,439.59a1.72,1.72,0,0,0-1.32-.5,1.58,1.58,0,0,0-.52.09c-.47.15-11.58,3.93-17.91,10.26a20.25,20.25,0,0,0-2,2.3v-18.5c10.73-.32,17.35-5.94,17.35-14.84a14.27,14.27,0,0,0-7.93-12.82h0a1.74,1.74,0,0,0-2.17.51l-3.63,4.85a27.49,27.49,0,0,0-4.2-5.06,1.77,1.77,0,0,0-1.16-.44h-.06a1.75,1.75,0,0,0-1.16.44,27.28,27.28,0,0,0-4.23,5.1l-3.66-4.89a1.74,1.74,0,0,0-2.17-.51,14.27,14.27,0,0,0-7.93,12.82c0,8.93,6.67,14.55,17.46,14.84v18.65a20.65,20.65,0,0,0-2.1-2.45c-6.33-6.33-17.44-10.11-17.91-10.26a1.72,1.72,0,0,0-1.78.41,1.74,1.74,0,0,0-.42,1.79c.16.47,3.93,11.58,10.27,17.91,4.81,4.81,9.72,5.53,12.21,5.53h2.89c2.49,0,7.41-.72,12.22-5.53,6.33-6.33,10.11-17.44,10.27-17.91A1.74,1.74,0,0,0,465.75,439.59Z"/><path class="cls-5" d="M434.85,398.67a1.78,1.78,0,0,0,0,2.41,1.51,1.51,0,0,0,2.25,0,7,7,0,0,1,10.27,0,1.52,1.52,0,0,0,2.26,0,1.79,1.79,0,0,0,0-2.41,10,10,0,0,0-14.78,0Z"/><path class="cls-5" d="M431.29,394a14.82,14.82,0,0,1,21.89,0,1.53,1.53,0,0,0,2.26,0,1.77,1.77,0,0,0,0-2.4,17.87,17.87,0,0,0-26.39,0,1.78,1.78,0,0,0,0,2.4,1.52,1.52,0,0,0,2.25,0Z"/><rect class="cls-6" x="104.81" y="510.34" width="104.32" height="104.32" rx="12"/><path class="cls-5" d="M180.48,576.81a1.76,1.76,0,0,0-1.32-.51,1.89,1.89,0,0,0-.52.09c-.47.16-11.58,3.94-17.91,10.27a21.25,21.25,0,0,0-2,2.29v-18.5c10.73-.32,17.35-5.94,17.35-14.83a14.25,14.25,0,0,0-7.92-12.82h0a1.73,1.73,0,0,0-2.17.51l-3.64,4.84a27.22,27.22,0,0,0-4.2-5,1.72,1.72,0,0,0-1.16-.44h-.06a1.72,1.72,0,0,0-1.16.44,27.41,27.41,0,0,0-4.23,5.09l-3.66-4.88a1.74,1.74,0,0,0-2.17-.51,14.26,14.26,0,0,0-7.93,12.82c0,8.92,6.67,14.55,17.47,14.83v18.66a21.62,21.62,0,0,0-2.1-2.45c-6.34-6.33-17.45-10.11-17.91-10.27A1.74,1.74,0,0,0,133,578.6c.16.47,3.93,11.57,10.27,17.91,4.81,4.81,9.73,5.53,12.22,5.53h2.89c2.49,0,7.4-.72,12.21-5.53,6.34-6.34,10.11-17.44,10.27-17.91A1.74,1.74,0,0,0,180.48,576.81Z"/><path class="cls-5" d="M149.58,535.89a1.79,1.79,0,0,0,0,2.41,1.53,1.53,0,0,0,2.26,0,7,7,0,0,1,10.27,0,1.52,1.52,0,0,0,2.25,0,1.79,1.79,0,0,0,0-2.41,10,10,0,0,0-14.78,0Z"/><path class="cls-5" d="M146,531.19a14.82,14.82,0,0,1,21.88,0,1.52,1.52,0,0,0,2.26,0,1.79,1.79,0,0,0,0-2.41,17.89,17.89,0,0,0-26.4,0,1.79,1.79,0,0,0,0,2.41,1.52,1.52,0,0,0,2.26,0Z"/><rect class="cls-6" x="247.45" y="510.34" width="104.32" height="104.32" rx="12"/><path class="cls-5" d="M323.11,576.81a1.75,1.75,0,0,0-1.31-.51,2,2,0,0,0-.53.09c-.47.16-11.57,3.94-17.91,10.27a22.42,22.42,0,0,0-2,2.29v-18.5c10.73-.32,17.36-5.94,17.36-14.83a14.26,14.26,0,0,0-7.93-12.82h0a1.73,1.73,0,0,0-2.17.51L305,548.15a27.05,27.05,0,0,0-4.21-5,1.7,1.7,0,0,0-1.16-.44h-.05a1.7,1.7,0,0,0-1.16.44,27,27,0,0,0-4.23,5.09l-3.67-4.88a1.74,1.74,0,0,0-2.17-.51,14.25,14.25,0,0,0-7.92,12.82c0,8.92,6.66,14.55,17.46,14.83v18.66a20.65,20.65,0,0,0-2.1-2.45c-6.34-6.33-17.44-10.11-17.91-10.27a1.74,1.74,0,0,0-1.79.42,1.77,1.77,0,0,0-.42,1.79c.16.47,3.94,11.57,10.27,17.91,4.82,4.81,9.73,5.53,12.22,5.53h2.89c2.49,0,7.4-.72,12.22-5.53,6.33-6.34,10.11-17.44,10.26-17.91A1.74,1.74,0,0,0,323.11,576.81Z"/><path class="cls-5" d="M292.22,535.89a1.78,1.78,0,0,0,0,2.41,1.53,1.53,0,0,0,2.26,0,7,7,0,0,1,10.27,0,1.52,1.52,0,0,0,2.25,0,1.77,1.77,0,0,0,0-2.41,10,10,0,0,0-14.77,0Z"/><path class="cls-5" d="M288.66,531.19a14.83,14.83,0,0,1,21.89,0,1.51,1.51,0,0,0,2.25,0,1.78,1.78,0,0,0,0-2.41,17.88,17.88,0,0,0-26.39,0,1.77,1.77,0,0,0,0,2.41,1.51,1.51,0,0,0,2.25,0Z"/><rect class="cls-6" x="390.08" y="510.34" width="104.32" height="104.32" rx="12"/><path class="cls-5" d="M465.75,576.81a1.76,1.76,0,0,0-1.32-.51,1.89,1.89,0,0,0-.52.09c-.47.16-11.58,3.94-17.91,10.27a20.19,20.19,0,0,0-2,2.29v-18.5c10.73-.32,17.35-5.94,17.35-14.83a14.26,14.26,0,0,0-7.93-12.82h0a1.74,1.74,0,0,0-2.17.51l-3.63,4.84a27.22,27.22,0,0,0-4.2-5,1.72,1.72,0,0,0-1.16-.44h-.06a1.7,1.7,0,0,0-1.16.44,27.41,27.41,0,0,0-4.23,5.09l-3.66-4.88a1.74,1.74,0,0,0-2.17-.51,14.26,14.26,0,0,0-7.93,12.82c0,8.92,6.67,14.55,17.46,14.83v18.66a20.65,20.65,0,0,0-2.1-2.45c-6.33-6.33-17.44-10.11-17.91-10.27a1.72,1.72,0,0,0-1.78.42,1.74,1.74,0,0,0-.42,1.79c.16.47,3.93,11.57,10.27,17.91,4.81,4.81,9.72,5.53,12.21,5.53h2.89c2.49,0,7.41-.72,12.22-5.53,6.33-6.34,10.11-17.44,10.27-17.91A1.74,1.74,0,0,0,465.75,576.81Z"/><path class="cls-5" d="M434.85,535.89a1.78,1.78,0,0,0,0,2.41,1.52,1.52,0,0,0,2.25,0,7,7,0,0,1,10.27,0,1.53,1.53,0,0,0,2.26,0,1.79,1.79,0,0,0,0-2.41,10,10,0,0,0-14.78,0Z"/><path class="cls-5" d="M431.29,531.19a14.83,14.83,0,0,1,21.89,0,1.52,1.52,0,0,0,2.26,0,1.78,1.78,0,0,0,0-2.41,17.88,17.88,0,0,0-26.39,0,1.79,1.79,0,0,0,0,2.41,1.51,1.51,0,0,0,2.25,0Z"/><rect class="cls-6" x="104.81" y="647.56" width="104.32" height="104.32" rx="12"/><path class="cls-5" d="M180.48,714a1.76,1.76,0,0,0-1.32-.51,1.58,1.58,0,0,0-.52.09c-.47.16-11.58,3.93-17.91,10.27a20.33,20.33,0,0,0-2,2.29v-18.5c10.73-.32,17.35-5.94,17.35-14.83A14.24,14.24,0,0,0,168.17,680h0a1.73,1.73,0,0,0-2.17.51l-3.64,4.84a26.82,26.82,0,0,0-4.2-5,1.73,1.73,0,0,0-1.16-.45h-.06a1.73,1.73,0,0,0-1.16.45,27,27,0,0,0-4.23,5.09l-3.66-4.88a1.74,1.74,0,0,0-2.17-.51,14.25,14.25,0,0,0-7.93,12.82c0,8.92,6.67,14.55,17.47,14.83v18.65a20.73,20.73,0,0,0-2.1-2.44c-6.34-6.34-17.45-10.11-17.91-10.27a1.74,1.74,0,0,0-2.21,2.2c.16.47,3.93,11.58,10.27,17.91,4.81,4.82,9.73,5.53,12.22,5.53h2.89c2.49,0,7.4-.71,12.21-5.53,6.34-6.33,10.11-17.44,10.27-17.91A1.73,1.73,0,0,0,180.48,714Z"/><path class="cls-5" d="M149.58,673.11a1.79,1.79,0,0,0,0,2.41,1.54,1.54,0,0,0,2.26,0,7,7,0,0,1,10.27,0,1.53,1.53,0,0,0,2.25,0,1.79,1.79,0,0,0,0-2.41,10,10,0,0,0-14.78,0Z"/><path class="cls-5" d="M146,668.41a14.82,14.82,0,0,1,21.88,0,1.54,1.54,0,0,0,2.26,0,1.79,1.79,0,0,0,0-2.41,17.88,17.88,0,0,0-26.4,0,1.79,1.79,0,0,0,0,2.41,1.54,1.54,0,0,0,2.26,0Z"/><rect class="cls-6" x="247.45" y="647.56" width="104.32" height="104.32" rx="12"/><path class="cls-5" d="M323.11,714a1.75,1.75,0,0,0-1.31-.51,1.64,1.64,0,0,0-.53.09c-.47.16-11.57,3.93-17.91,10.27a21.4,21.4,0,0,0-2,2.29v-18.5c10.73-.32,17.36-5.94,17.36-14.83A14.25,14.25,0,0,0,310.8,680h0a1.73,1.73,0,0,0-2.17.51L305,685.37a26.66,26.66,0,0,0-4.21-5,1.71,1.71,0,0,0-1.16-.45h-.05a1.71,1.71,0,0,0-1.16.45,26.6,26.6,0,0,0-4.23,5.09l-3.67-4.88a1.74,1.74,0,0,0-2.17-.51,14.24,14.24,0,0,0-7.92,12.82c0,8.92,6.66,14.55,17.46,14.83v18.65a19.83,19.83,0,0,0-2.1-2.44c-6.34-6.34-17.44-10.11-17.91-10.27a1.74,1.74,0,0,0-2.21,2.2c.16.47,3.94,11.58,10.27,17.91,4.82,4.82,9.73,5.53,12.22,5.53h2.89c2.49,0,7.4-.71,12.22-5.53,6.33-6.33,10.11-17.44,10.26-17.91A1.73,1.73,0,0,0,323.11,714Z"/><path class="cls-5" d="M292.22,673.11a1.78,1.78,0,0,0,0,2.41,1.54,1.54,0,0,0,2.26,0,7,7,0,0,1,10.27,0,1.53,1.53,0,0,0,2.25,0,1.77,1.77,0,0,0,0-2.41,10,10,0,0,0-14.77,0Z"/><path class="cls-5" d="M288.66,668.41a14.83,14.83,0,0,1,21.89,0,1.53,1.53,0,0,0,2.25,0,1.78,1.78,0,0,0,0-2.41,17.87,17.87,0,0,0-26.39,0,1.77,1.77,0,0,0,0,2.41,1.53,1.53,0,0,0,2.25,0Z"/><rect class="cls-6" x="390.08" y="647.56" width="104.32" height="104.32" rx="12"/><path class="cls-5" d="M465.75,714a1.76,1.76,0,0,0-1.32-.51,1.58,1.58,0,0,0-.52.09c-.47.16-11.58,3.93-17.91,10.27a19.36,19.36,0,0,0-2,2.29v-18.5c10.73-.32,17.35-5.94,17.35-14.83A14.25,14.25,0,0,0,453.43,680h0a1.74,1.74,0,0,0-2.17.51l-3.63,4.84a26.82,26.82,0,0,0-4.2-5,1.73,1.73,0,0,0-1.16-.45h-.06a1.71,1.71,0,0,0-1.16.45,27,27,0,0,0-4.23,5.09l-3.66-4.88A1.74,1.74,0,0,0,431,680a14.25,14.25,0,0,0-7.93,12.82c0,8.92,6.67,14.55,17.46,14.83v18.65a19.83,19.83,0,0,0-2.1-2.44c-6.33-6.34-17.44-10.11-17.91-10.27a1.74,1.74,0,0,0-2.2,2.2c.16.47,3.93,11.58,10.27,17.91,4.81,4.82,9.72,5.53,12.21,5.53h2.89c2.49,0,7.41-.71,12.22-5.53,6.33-6.33,10.11-17.44,10.27-17.91A1.73,1.73,0,0,0,465.75,714Z"/><path class="cls-5" d="M434.85,673.11a1.78,1.78,0,0,0,0,2.41,1.53,1.53,0,0,0,2.25,0,7,7,0,0,1,10.27,0,1.54,1.54,0,0,0,2.26,0,1.79,1.79,0,0,0,0-2.41,10,10,0,0,0-14.78,0Z"/><path class="cls-5" d="M431.29,668.41a14.83,14.83,0,0,1,21.89,0,1.54,1.54,0,0,0,2.26,0,1.78,1.78,0,0,0,0-2.41A17.87,17.87,0,0,0,429,666a1.79,1.79,0,0,0,0,2.41,1.53,1.53,0,0,0,2.25,0Z"/><rect class="cls-6" x="104.81" y="784.78" width="104.32" height="104.32" rx="12"/><path class="cls-5" d="M180.48,851.25a1.69,1.69,0,0,0-1.32-.51,1.58,1.58,0,0,0-.52.09c-.47.15-11.58,3.93-17.91,10.26a21.31,21.31,0,0,0-2,2.3v-18.5c10.73-.32,17.35-5.94,17.35-14.83a14.26,14.26,0,0,0-7.92-12.83h0a1.73,1.73,0,0,0-2.17.52l-3.64,4.84a27.49,27.49,0,0,0-4.2-5.06,1.77,1.77,0,0,0-1.16-.44h-.06a1.77,1.77,0,0,0-1.16.44,27.28,27.28,0,0,0-4.23,5.1l-3.66-4.88a1.73,1.73,0,0,0-2.17-.52,14.27,14.27,0,0,0-7.93,12.83c0,8.92,6.67,14.54,17.47,14.83v18.65a21.62,21.62,0,0,0-2.1-2.45c-6.34-6.33-17.45-10.11-17.91-10.26A1.74,1.74,0,0,0,133,853c.16.47,3.93,11.58,10.27,17.91,4.81,4.81,9.73,5.53,12.22,5.53h2.89c2.49,0,7.4-.72,12.21-5.53C177,864.61,180.74,853.5,180.9,853A1.72,1.72,0,0,0,180.48,851.25Z"/><path class="cls-5" d="M149.58,810.33a1.78,1.78,0,0,0,0,2.4,1.52,1.52,0,0,0,2.26,0,7,7,0,0,1,10.27,0,1.51,1.51,0,0,0,2.25,0,1.78,1.78,0,0,0,0-2.4,10,10,0,0,0-14.78,0Z"/><path class="cls-5" d="M146,805.63a14.8,14.8,0,0,1,21.88,0,1.53,1.53,0,0,0,2.26,0,1.78,1.78,0,0,0,0-2.4,17.88,17.88,0,0,0-26.4,0,1.78,1.78,0,0,0,0,2.4,1.53,1.53,0,0,0,2.26,0Z"/><rect class="cls-6" x="247.45" y="784.78" width="104.32" height="104.32" rx="12"/><path class="cls-5" d="M323.11,851.25a1.68,1.68,0,0,0-1.31-.51,1.64,1.64,0,0,0-.53.09c-.47.15-11.57,3.93-17.91,10.26a22.49,22.49,0,0,0-2,2.3v-18.5c10.73-.32,17.36-5.94,17.36-14.83a14.27,14.27,0,0,0-7.93-12.83h0a1.73,1.73,0,0,0-2.17.52L305,822.59a27.32,27.32,0,0,0-4.21-5.06,1.75,1.75,0,0,0-1.16-.44h-.05a1.75,1.75,0,0,0-1.16.44,26.85,26.85,0,0,0-4.23,5.1l-3.67-4.88a1.73,1.73,0,0,0-2.17-.52,14.26,14.26,0,0,0-7.92,12.83c0,8.92,6.66,14.54,17.46,14.83v18.65a20.65,20.65,0,0,0-2.1-2.45c-6.34-6.33-17.44-10.11-17.91-10.26a1.72,1.72,0,0,0-1.79.42,1.74,1.74,0,0,0-.42,1.78c.16.47,3.94,11.58,10.27,17.91,4.82,4.81,9.73,5.53,12.22,5.53h2.89c2.49,0,7.4-.72,12.22-5.53,6.33-6.33,10.11-17.44,10.26-17.91A1.72,1.72,0,0,0,323.11,851.25Z"/><path class="cls-5" d="M292.22,810.33a1.77,1.77,0,0,0,0,2.4,1.52,1.52,0,0,0,2.26,0,7,7,0,0,1,10.27,0,1.51,1.51,0,0,0,2.25,0,1.76,1.76,0,0,0,0-2.4,10,10,0,0,0-14.77,0Z"/><path class="cls-5" d="M288.66,805.63a14.82,14.82,0,0,1,21.89,0,1.52,1.52,0,0,0,2.25,0,1.77,1.77,0,0,0,0-2.4,17.87,17.87,0,0,0-26.39,0,1.76,1.76,0,0,0,0,2.4,1.52,1.52,0,0,0,2.25,0Z"/><rect class="cls-6" x="390.08" y="784.78" width="104.32" height="104.32" rx="12"/><path class="cls-5" d="M465.75,851.25a1.69,1.69,0,0,0-1.32-.51,1.58,1.58,0,0,0-.52.09c-.47.15-11.58,3.93-17.91,10.26a20.25,20.25,0,0,0-2,2.3v-18.5c10.73-.32,17.35-5.94,17.35-14.83a14.27,14.27,0,0,0-7.93-12.83h0a1.73,1.73,0,0,0-2.17.52l-3.63,4.84a27.49,27.49,0,0,0-4.2-5.06,1.77,1.77,0,0,0-1.16-.44h-.06a1.75,1.75,0,0,0-1.16.44,27.28,27.28,0,0,0-4.23,5.1l-3.66-4.88a1.73,1.73,0,0,0-2.17-.52,14.27,14.27,0,0,0-7.93,12.83c0,8.92,6.67,14.54,17.46,14.83v18.65a20.65,20.65,0,0,0-2.1-2.45c-6.33-6.33-17.44-10.11-17.91-10.26a1.7,1.7,0,0,0-1.78.42,1.72,1.72,0,0,0-.42,1.78c.16.47,3.93,11.58,10.27,17.91,4.81,4.81,9.72,5.53,12.21,5.53h2.89c2.49,0,7.41-.72,12.22-5.53,6.33-6.33,10.11-17.44,10.27-17.91A1.72,1.72,0,0,0,465.75,851.25Z"/><path class="cls-5" d="M434.85,810.33a1.77,1.77,0,0,0,0,2.4,1.51,1.51,0,0,0,2.25,0,7,7,0,0,1,10.27,0,1.52,1.52,0,0,0,2.26,0,1.78,1.78,0,0,0,0-2.4,10,10,0,0,0-14.78,0Z"/><path class="cls-5" d="M431.29,805.63a14.82,14.82,0,0,1,21.89,0,1.53,1.53,0,0,0,2.26,0,1.77,1.77,0,0,0,0-2.4,17.87,17.87,0,0,0-26.39,0,1.78,1.78,0,0,0,0,2.4,1.52,1.52,0,0,0,2.25,0Z"/><rect class="cls-6" x="104.81" y="921.99" width="104.32" height="104.32" rx="12"/><path class="cls-5" d="M180.48,988.46a1.76,1.76,0,0,0-1.32-.51,1.89,1.89,0,0,0-.52.09c-.47.16-11.58,3.94-17.91,10.27a21.25,21.25,0,0,0-2,2.29V982.1c10.73-.32,17.35-5.94,17.35-14.83a14.25,14.25,0,0,0-7.92-12.82h0A1.73,1.73,0,0,0,166,955l-3.64,4.85a27.09,27.09,0,0,0-4.2-5.06,1.77,1.77,0,0,0-1.16-.44h-.06a1.77,1.77,0,0,0-1.16.44,27.28,27.28,0,0,0-4.23,5.1L147.89,955a1.74,1.74,0,0,0-2.17-.51,14.26,14.26,0,0,0-7.93,12.82c0,8.92,6.67,14.55,17.47,14.83v18.66a21.62,21.62,0,0,0-2.1-2.45C146.82,992,135.71,988.2,135.25,988a1.77,1.77,0,0,0-1.79.42,1.74,1.74,0,0,0-.42,1.79c.16.47,3.93,11.57,10.27,17.91,4.81,4.81,9.73,5.53,12.22,5.53h2.89c2.49,0,7.4-.72,12.21-5.53,6.34-6.34,10.11-17.44,10.27-17.91A1.74,1.74,0,0,0,180.48,988.46Z"/><path class="cls-5" d="M149.58,947.54a1.79,1.79,0,0,0,0,2.41,1.52,1.52,0,0,0,2.26,0,7,7,0,0,1,10.27,0,1.51,1.51,0,0,0,2.25,0,1.79,1.79,0,0,0,0-2.41,10,10,0,0,0-14.78,0Z"/><path class="cls-5" d="M146,942.84a14.82,14.82,0,0,1,21.88,0,1.52,1.52,0,0,0,2.26,0,1.79,1.79,0,0,0,0-2.41,17.89,17.89,0,0,0-26.4,0,1.79,1.79,0,0,0,0,2.41,1.52,1.52,0,0,0,2.26,0Z"/><rect class="cls-6" x="247.45" y="921.99" width="104.32" height="104.32" rx="12"/><path class="cls-5" d="M323.11,988.46a1.75,1.75,0,0,0-1.31-.51,2,2,0,0,0-.53.09c-.47.16-11.57,3.94-17.91,10.27a22.42,22.42,0,0,0-2,2.29V982.1c10.73-.32,17.36-5.94,17.36-14.83a14.26,14.26,0,0,0-7.93-12.82h0a1.73,1.73,0,0,0-2.17.51L305,959.81a26.92,26.92,0,0,0-4.21-5.06,1.75,1.75,0,0,0-1.16-.44h-.05a1.75,1.75,0,0,0-1.16.44,26.85,26.85,0,0,0-4.23,5.1L290.52,955a1.74,1.74,0,0,0-2.17-.51,14.25,14.25,0,0,0-7.92,12.82c0,8.92,6.66,14.55,17.46,14.83v18.66a20.65,20.65,0,0,0-2.1-2.45C289.45,992,278.35,988.2,277.88,988a1.74,1.74,0,0,0-2.21,2.21c.16.47,3.94,11.57,10.27,17.91,4.82,4.81,9.73,5.53,12.22,5.53h2.89c2.49,0,7.4-.72,12.22-5.53,6.33-6.34,10.11-17.44,10.26-17.91A1.74,1.74,0,0,0,323.11,988.46Z"/><path class="cls-5" d="M292.22,947.54a1.78,1.78,0,0,0,0,2.41,1.52,1.52,0,0,0,2.26,0,7,7,0,0,1,10.27,0,1.51,1.51,0,0,0,2.25,0,1.77,1.77,0,0,0,0-2.41,10,10,0,0,0-14.77,0Z"/><path class="cls-5" d="M288.66,942.84a14.83,14.83,0,0,1,21.89,0,1.51,1.51,0,0,0,2.25,0,1.78,1.78,0,0,0,0-2.41,17.88,17.88,0,0,0-26.39,0,1.77,1.77,0,0,0,0,2.41,1.51,1.51,0,0,0,2.25,0Z"/><rect class="cls-6" x="390.08" y="921.99" width="104.32" height="104.32" rx="12"/><path class="cls-5" d="M465.75,988.46a1.76,1.76,0,0,0-1.32-.51,1.89,1.89,0,0,0-.52.09c-.47.16-11.58,3.94-17.91,10.27a20.19,20.19,0,0,0-2,2.29V982.1c10.73-.32,17.35-5.94,17.35-14.83a14.26,14.26,0,0,0-7.93-12.82h0a1.74,1.74,0,0,0-2.17.51l-3.63,4.85a27.09,27.09,0,0,0-4.2-5.06,1.77,1.77,0,0,0-1.16-.44h-.06a1.75,1.75,0,0,0-1.16.44,27.28,27.28,0,0,0-4.23,5.1L433.16,955a1.74,1.74,0,0,0-2.17-.51,14.26,14.26,0,0,0-7.93,12.82c0,8.92,6.67,14.55,17.46,14.83v18.66a20.65,20.65,0,0,0-2.1-2.45C432.09,992,421,988.2,420.51,988a1.74,1.74,0,0,0-2.2,2.21c.16.47,3.93,11.57,10.27,17.91,4.81,4.81,9.72,5.53,12.21,5.53h2.89c2.49,0,7.41-.72,12.22-5.53,6.33-6.34,10.11-17.44,10.27-17.91A1.74,1.74,0,0,0,465.75,988.46Z"/><path class="cls-5" d="M434.85,947.54a1.78,1.78,0,0,0,0,2.41,1.51,1.51,0,0,0,2.25,0,7,7,0,0,1,10.27,0,1.52,1.52,0,0,0,2.26,0,1.79,1.79,0,0,0,0-2.41,10,10,0,0,0-14.78,0Z"/><path class="cls-5" d="M431.29,942.84a14.83,14.83,0,0,1,21.89,0,1.52,1.52,0,0,0,2.26,0,1.78,1.78,0,0,0,0-2.41,17.88,17.88,0,0,0-26.39,0,1.79,1.79,0,0,0,0,2.41,1.51,1.51,0,0,0,2.25,0Z"/></g></g></svg>