<svg xmlns="http://www.w3.org/2000/svg" xmlns:xlink="http://www.w3.org/1999/xlink" viewBox="0 0 279 292.01"><defs><style>.cls-1{fill:none;}.cls-2{clip-path:url(#clip-path);}.cls-3{fill:url(#Áåçûìÿííûé_ãðàäèåíò_5);}.cls-4{fill:url(#Gradiente_sem_nome_8);}.cls-5{fill:#fff;}</style><clipPath id="clip-path"><rect class="cls-1" x="-3643.22" y="-397" width="2484.44" height="1118"/></clipPath><linearGradient id="Áåçûìÿííûé_ãðàäèåíò_5" x1="-1341.95" y1="-700.35" x2="-1253.36" y2="243.56" gradientUnits="userSpaceOnUse"><stop offset="0.01" stop-color="#ecbfa5"/><stop offset="1" stop-color="#fffdef"/></linearGradient><linearGradient id="Gradiente_sem_nome_8" x1="23.27" y1="146" x2="255.73" y2="146" gradientUnits="userSpaceOnUse"><stop offset="0" stop-color="#bd4f5e"/><stop offset="0.47" stop-color="#d95a4d"/><stop offset="1" stop-color="#f4643d"/></linearGradient></defs><title>Prancheta 5 cópia 3</title><g id="V2"><g class="cls-2"><path class="cls-3" d="M-2680.78,78.66s636.08,107.9,774.58,117.25,336.38,26.44,385,33S170.4,369.45,170.4,369.45-1458.93,214-1484.93,209.69s-111.1-29.45-135.92-24-67.59,11.81-89.27,17.54-134-13-152-12.7-84.88-38.83-104-37.76-57.64,21.89-69.4,17.1-149.67-55.25-172.15-61.23-56.22-10.45-101.6,2.57c-37.73,10.82-26.08,26.07-123.84-45.62C-2546-17.13-2680.78,78.66-2680.78,78.66Z"/></g></g><g id="assets"><circle class="cls-4" cx="139.5" cy="146" r="116.23"/><path class="cls-5" d="M157.35,162a.88.88,0,0,1-.33-.71V120.94a17.52,17.52,0,1,0-35,.25v4.56c0,3.15,4.87,3.15,4.87,0v-4.5a12.65,12.65,0,1,1,25.3-.25v40.29a5.72,5.72,0,0,0,2.32,4.61c19.53,14.6,9.5,45.51-15,45.7-24.46-.19-34.51-31.12-15-45.7a5.74,5.74,0,0,0,2.31-4.61V138.73c0-3.15-4.87-3.15-4.87,0v22.56a.88.88,0,0,1-.33.71c-23.35,17.36-11.31,54.32,17.85,54.53,29.16-.21,41.19-37.17,17.85-54.53Z"/><path class="cls-5" d="M139.5,132.86a7.46,7.46,0,0,0-7.46,7.45v27.35c-20.41,8.54-14.76,38.52,7.46,38.89,22.22-.37,27.87-30.36,7.46-38.89V140.31a7.46,7.46,0,0,0-7.46-7.45Zm15.24,53.43a15.25,15.25,0,0,1-15.24,15.22c-17.57-.41-21-24.43-4.32-29.81a2.43,2.43,0,0,0,1.73-2.31V140.48a2.6,2.6,0,0,1,5.19,0v28.89a2.42,2.42,0,0,0,1.72,2.33,15.31,15.31,0,0,1,10.92,14.59Z"/><path class="cls-5" d="M128.31,94a2.43,2.43,0,1,0,3.43,3.45,11.11,11.11,0,0,1,15.67,0A2.44,2.44,0,1,0,150.85,94a16,16,0,0,0-22.54,0Z"/><path class="cls-5" d="M122.88,87.24a23.68,23.68,0,0,1,33.4,0,2.44,2.44,0,1,0,3.44-3.45,28.56,28.56,0,0,0-40.28,0,2.44,2.44,0,0,0,3.44,3.45Z"/></g></svg>