<svg id="Camada_1" data-name="Camada 1" xmlns="http://www.w3.org/2000/svg" viewBox="0 0 3197 1165"><defs><style>.cls-1{fill:#1bbc9d;}.cls-2{fill:#329b87;}.cls-3{fill:#1de4be;}.cls-4{font-size:506.2px;fill:#fff;font-family:AgusSans-Regular, Agus Sans;}.cls-5{letter-spacing:-0.04em;}.cls-6{letter-spacing:0em;}</style></defs><title>Prancheta 2 cópia</title><g id="logo"><path class="cls-1" d="M1047.28,884.07A305.84,305.84,0,0,0,929,810.23a25,25,0,0,0-24.5,4.82c-2.93,2.56-110.63,105-269.31,62.68a25.06,25.06,0,0,0-13.74,0C462.73,920,355,817.61,352.11,815.05a25,25,0,0,0-24.5-4.82A305.76,305.76,0,0,0,209.3,884.07a25,25,0,0,0,0,35.34,308.79,308.79,0,0,0,419,16.35,308.79,308.79,0,0,0,419-16.35,25,25,0,0,0,0-35.34Z"/><path class="cls-2" d="M1047.2,884.07a305.69,305.69,0,0,0-118.31-73.84,25,25,0,0,0-24.49,4.82c-2.93,2.56-110.63,105-269.31,62.68a25,25,0,0,0-6.86-1v59A308.78,308.78,0,0,0,1047,919.61a24.9,24.9,0,0,0,.2-35.54Z"/><path class="cls-3" d="M1025.12,651.7a345.66,345.66,0,0,0-163.76-3.22A25,25,0,0,0,843,665.41,317.85,317.85,0,0,1,628.29,875.8,317.85,317.85,0,0,1,413.6,665.41a25,25,0,0,0-18.38-16.93,345.66,345.66,0,0,0-163.76,3.22,25,25,0,0,0-18.31,30.78,344.17,344.17,0,0,0,415.14,245,344.17,344.17,0,0,0,415.14-245,25,25,0,0,0-18.31-30.78Z"/><path class="cls-3" d="M1025.06,651.7a345.66,345.66,0,0,0-163.76-3.22,25,25,0,0,0-18.38,16.93A317.85,317.85,0,0,1,628.23,875.8v51.71a344.17,344.17,0,0,0,415.14-245,25,25,0,0,0-18.31-30.78Z"/><path class="cls-1" d="M894.88,475.32a25,25,0,0,0-30.59-17.66,368.76,368.76,0,0,0-159.76,90.16,25,25,0,0,0-6.94,24A329.84,329.84,0,0,1,628.29,865,329.84,329.84,0,0,1,559,571.81a25,25,0,0,0-6.93-24,368.85,368.85,0,0,0-159.77-90.16,25,25,0,0,0-30.59,17.66A367.86,367.86,0,0,0,621.81,925.87a24.84,24.84,0,0,0,13,0A367.83,367.83,0,0,0,894.88,475.32Z"/><path class="cls-2" d="M894.82,475.32a25,25,0,0,0-30.59-17.66,368.79,368.79,0,0,0-159.77,90.16,25,25,0,0,0-6.93,24A329.84,329.84,0,0,1,628.23,865v61.75a25,25,0,0,0,6.49-.86A367.86,367.86,0,0,0,894.82,475.32Z"/><path class="cls-3" d="M628.29,926.72a25,25,0,0,1-17.68-7.31,379.73,379.73,0,0,1,0-537,25,25,0,0,1,35.34,0,379.71,379.71,0,0,1,0,537,25,25,0,0,1-17.66,7.31Z"/><path class="cls-1" d="M628.23,926.72V375.11a25,25,0,0,1,17.67,7.32,379.71,379.71,0,0,1,0,537,25,25,0,0,1-17.66,7.31Z"/><path class="cls-1" d="M538.71,310.33a21.41,21.41,0,0,0,0,28.9,18.3,18.3,0,0,0,27.08,0c34-36.23,89.29-36.22,123.27,0q13.54,12,27.07,0a21.4,21.4,0,0,0,0-28.9c-48.89-52.13-128.46-52.13-177.37,0Z"/><path class="cls-1" d="M496,253.92c72.43-77.21,190.28-77.21,262.71,0q13.54,12,27.08,0a21.43,21.43,0,0,0,0-28.91c-87.34-93.1-229.46-93.11-316.81,0a21.44,21.44,0,0,0,0,28.91,18.3,18.3,0,0,0,27.07,0Z"/></g><text class="cls-4" transform="translate(1405.57 760.86)">B<tspan class="cls-5" x="298.65" y="0">l</tspan><tspan class="cls-6" x="526.44" y="0">oom</tspan></text></svg>